{
    "asset" : {
        "generator" : "Khronos glTF Blender I/O v1.6.16",
        "version" : "2.0"
    },
    "extensionsUsed" : [
        "KHR_materials_transmission"
    ],
    "scene" : 0,
    "scenes" : [
        {
            "name" : "Scene",
            "nodes" : [
                0,
                1,
                2,
                3,
                4,
                5
            ]
        }
    ],
    "nodes" : [
        {
            "mesh" : 0,
            "name" : "LeftColor.001"
        },
        {
            "mesh" : 1,
            "name" : "RightColor.001"
        },
        {
            "mesh" : 2,
            "name" : "TopColor.001"
        },
        {
            "mesh" : 3,
            "name" : "LeftOffset.001"
        },
        {
            "mesh" : 4,
            "name" : "RightOffset.001"
        },
        {
            "mesh" : 5,
            "name" : "TopOffset.001"
        }
    ],
    "materials" : [
        {
            "alphaMode" : "BLEND",
            "doubleSided" : true,
            "emissiveFactor" : [
                1,
                1,
                1
            ],
            "emissiveTexture" : {
                "index" : 0
            },
            "extensions" : {
                "KHR_materials_transmission" : {
                    "transmissionFactor" : 1
                }
            },
            "name" : "LogoColor",
            "pbrMetallicRoughness" : {
                "baseColorFactor" : [
                    1,
                    1,
                    1,
                    0.7443514466285706
                ],
                "baseColorTexture" : {
                    "index" : 1
                },
                "metallicFactor" : 0,
                "roughnessFactor" : 0.06836362183094025
            }
        },
        {
            "doubleSided" : true,
            "name" : "LogoOffset",
            "pbrMetallicRoughness" : {
                "baseColorFactor" : [
                    0,
                    0,
                    0,
                    1
                ],
                "metallicFactor" : 0,
                "roughnessFactor" : 0.5
            }
        }
    ],
    "meshes" : [
        {
            "name" : "Curve.050",
            "primitives" : [
                {
                    "attributes" : {
                        "POSITION" : 0,
                        "NORMAL" : 1,
                        "TEXCOORD_0" : 2
                    },
                    "indices" : 3,
                    "material" : 0
                }
            ]
        },
        {
            "name" : "Curve.051",
            "primitives" : [
                {
                    "attributes" : {
                        "POSITION" : 4,
                        "NORMAL" : 5,
                        "TEXCOORD_0" : 6
                    },
                    "indices" : 7,
                    "material" : 0
                }
            ]
        },
        {
            "name" : "Curve.052",
            "primitives" : [
                {
                    "attributes" : {
                        "POSITION" : 8,
                        "NORMAL" : 9,
                        "TEXCOORD_0" : 10
                    },
                    "indices" : 11,
                    "material" : 0
                }
            ]
        },
        {
            "name" : "Curve.053",
            "primitives" : [
                {
                    "attributes" : {
                        "POSITION" : 12,
                        "NORMAL" : 13,
                        "TEXCOORD_0" : 14
                    },
                    "indices" : 15,
                    "material" : 1
                }
            ]
        },
        {
            "name" : "Curve.054",
            "primitives" : [
                {
                    "attributes" : {
                        "POSITION" : 16,
                        "NORMAL" : 17,
                        "TEXCOORD_0" : 18
                    },
                    "indices" : 19,
                    "material" : 1
                }
            ]
        },
        {
            "name" : "Curve.055",
            "primitives" : [
                {
                    "attributes" : {
                        "POSITION" : 20,
                        "NORMAL" : 21,
                        "TEXCOORD_0" : 22
                    },
                    "indices" : 23,
                    "material" : 1
                }
            ]
        }
    ],
    "textures" : [
        {
            "sampler" : 0,
            "source" : 0
        },
        {
            "sampler" : 0,
            "source" : 0
        }
    ],
    "images" : [
        {
            "mimeType" : "image/png",
            "name" : "LogoColor",
            "uri" : "LogoColor.png"
        }
    ],
    "accessors" : [
        {
            "bufferView" : 0,
            "componentType" : 5126,
            "count" : 11559,
            "max" : [
                -0.028722509741783142,
                0.36427780985832214,
                0.06000002473592758
            ],
            "min" : [
                -0.7297952175140381,
                -0.506924033164978,
                -0.060000039637088776
            ],
            "type" : "VEC3"
        },
        {
            "bufferView" : 1,
            "componentType" : 5126,
            "count" : 11559,
            "type" : "VEC3"
        },
        {
            "bufferView" : 2,
            "componentType" : 5126,
            "count" : 11559,
            "type" : "VEC2"
        },
        {
            "bufferView" : 3,
            "componentType" : 5123,
            "count" : 46788,
            "type" : "SCALAR"
        },
        {
            "bufferView" : 4,
            "componentType" : 5126,
            "count" : 11125,
            "max" : [
                0.7288405299186707,
                0.3642411530017853,
                0.060000043362379074
            ],
            "min" : [
                0.027742832899093628,
                -0.5069240927696228,
                -0.06000005826354027
            ],
            "type" : "VEC3"
        },
        {
            "bufferView" : 5,
            "componentType" : 5126,
            "count" : 11125,
            "type" : "VEC3"
        },
        {
            "bufferView" : 6,
            "componentType" : 5126,
            "count" : 11125,
            "type" : "VEC2"
        },
        {
            "bufferView" : 7,
            "componentType" : 5123,
            "count" : 46788,
            "type" : "SCALAR"
        },
        {
            "bufferView" : 8,
            "componentType" : 5126,
            "count" : 10381,
            "max" : [
                0.46873584389686584,
                0.8849841356277466,
                0.05999995768070221
            ],
            "min" : [
                -0.46418339014053345,
                0.39675378799438477,
                -0.06000008061528206
            ],
            "type" : "VEC3"
        },
        {
            "bufferView" : 9,
            "componentType" : 5126,
            "count" : 10381,
            "type" : "VEC3"
        },
        {
            "bufferView" : 10,
            "componentType" : 5126,
            "count" : 10381,
            "type" : "VEC2"
        },
        {
            "bufferView" : 11,
            "componentType" : 5123,
            "count" : 43188,
            "type" : "SCALAR"
        },
        {
            "bufferView" : 12,
            "componentType" : 5126,
            "count" : 5000,
            "max" : [
                -0.011722594499588013,
                0.38127779960632324,
                0.04500002786517143
            ],
            "min" : [
                -0.7467955946922302,
                -0.5239241123199463,
                -0.04500003904104233
            ],
            "type" : "VEC3"
        },
        {
            "bufferView" : 13,
            "componentType" : 5126,
            "count" : 5000,
            "type" : "VEC3"
        },
        {
            "bufferView" : 14,
            "componentType" : 5126,
            "count" : 5000,
            "type" : "VEC2"
        },
        {
            "bufferView" : 15,
            "componentType" : 5123,
            "count" : 7788,
            "type" : "SCALAR"
        },
        {
            "bufferView" : 16,
            "componentType" : 5126,
            "count" : 4734,
            "max" : [
                0.7458407878875732,
                0.3812410831451416,
                0.045000046491622925
            ],
            "min" : [
                0.01074276864528656,
                -0.5239241123199463,
                -0.04500005766749382
            ],
            "type" : "VEC3"
        },
        {
            "bufferView" : 17,
            "componentType" : 5126,
            "count" : 4734,
            "type" : "VEC3"
        },
        {
            "bufferView" : 18,
            "componentType" : 5126,
            "count" : 4734,
            "type" : "VEC2"
        },
        {
            "bufferView" : 19,
            "componentType" : 5123,
            "count" : 7788,
            "type" : "SCALAR"
        },
        {
            "bufferView" : 20,
            "componentType" : 5126,
            "count" : 4388,
            "max" : [
                0.485735684633255,
                0.9019838571548462,
                0.04499995708465576
            ],
            "min" : [
                -0.48118335008621216,
                0.37975385785102844,
                -0.04500007629394531
            ],
            "type" : "VEC3"
        },
        {
            "bufferView" : 21,
            "componentType" : 5126,
            "count" : 4388,
            "type" : "VEC3"
        },
        {
            "bufferView" : 22,
            "componentType" : 5126,
            "count" : 4388,
            "type" : "VEC2"
        },
        {
            "bufferView" : 23,
            "componentType" : 5123,
            "count" : 7188,
            "type" : "SCALAR"
        }
    ],
    "bufferViews" : [
        {
            "buffer" : 0,
            "byteLength" : 138708,
            "byteOffset" : 0
        },
        {
            "buffer" : 0,
            "byteLength" : 138708,
            "byteOffset" : 138708
        },
        {
            "buffer" : 0,
            "byteLength" : 92472,
            "byteOffset" : 277416
        },
        {
            "buffer" : 0,
            "byteLength" : 93576,
            "byteOffset" : 369888
        },
        {
            "buffer" : 0,
            "byteLength" : 133500,
            "byteOffset" : 463464
        },
        {
            "buffer" : 0,
            "byteLength" : 133500,
            "byteOffset" : 596964
        },
        {
            "buffer" : 0,
            "byteLength" : 89000,
            "byteOffset" : 730464
        },
        {
            "buffer" : 0,
            "byteLength" : 93576,
            "byteOffset" : 819464
        },
        {
            "buffer" : 0,
            "byteLength" : 124572,
            "byteOffset" : 913040
        },
        {
            "buffer" : 0,
            "byteLength" : 124572,
            "byteOffset" : 1037612
        },
        {
            "buffer" : 0,
            "byteLength" : 83048,
            "byteOffset" : 1162184
        },
        {
            "buffer" : 0,
            "byteLength" : 86376,
            "byteOffset" : 1245232
        },
        {
            "buffer" : 0,
            "byteLength" : 60000,
            "byteOffset" : 1331608
        },
        {
            "buffer" : 0,
            "byteLength" : 60000,
            "byteOffset" : 1391608
        },
        {
            "buffer" : 0,
            "byteLength" : 40000,
            "byteOffset" : 1451608
        },
        {
            "buffer" : 0,
            "byteLength" : 15576,
            "byteOffset" : 1491608
        },
        {
            "buffer" : 0,
            "byteLength" : 56808,
            "byteOffset" : 1507184
        },
        {
            "buffer" : 0,
            "byteLength" : 56808,
            "byteOffset" : 1563992
        },
        {
            "buffer" : 0,
            "byteLength" : 37872,
            "byteOffset" : 1620800
        },
        {
            "buffer" : 0,
            "byteLength" : 15576,
            "byteOffset" : 1658672
        },
        {
            "buffer" : 0,
            "byteLength" : 52656,
            "byteOffset" : 1674248
        },
        {
            "buffer" : 0,
            "byteLength" : 52656,
            "byteOffset" : 1726904
        },
        {
            "buffer" : 0,
            "byteLength" : 35104,
            "byteOffset" : 1779560
        },
        {
            "buffer" : 0,
            "byteLength" : 14376,
            "byteOffset" : 1814664
        }
    ],
    "samplers" : [
        {
            "magFilter" : 9729,
            "minFilter" : 9987
        }
    ],
    "buffers" : [
        {
            "byteLength" : 1829040,
            "uri" : "Logo.bin"
        }
    ]
}
